<?xml version="1.0" standalone="no"?>
<!DOCTYPE svg PUBLIC "-//W3C//DTD SVG 20010904//EN"
 "http://www.w3.org/TR/2001/REC-SVG-20010904/DTD/svg10.dtd">
<svg version="1.0" xmlns="http://www.w3.org/2000/svg"
 width="600.000000pt" height="600.000000pt" viewBox="0 0 600.000000 600.000000"
 preserveAspectRatio="xMidYMid meet">
<metadata>
Created by potrace 1.14, written by Peter Selinger 2001-2017
</metadata>
<g transform="translate(0.000000,600.000000) scale(0.100000,-0.100000)"
fill="#000000" stroke="none">
<path d="M3980 5490 l0 -310 80 0 80 0 0 310 0 310 -80 0 -80 0 0 -310z"/>
<path d="M3187 5582 c-31 -20 -56 -42 -55 -49 5 -20 313 -512 321 -513 4 0 36
18 72 41 l64 40 -42 68 c-23 37 -96 153 -162 259 -66 106 -124 192 -130 191
-5 0 -36 -17 -68 -37z"/>
<path d="M4856 5587 c-31 -51 -277 -500 -279 -509 -3 -14 126 -90 135 -80 3 4
72 125 151 270 165 297 158 259 54 315 l-47 26 -14 -22z"/>
<path d="M2516 4949 c-21 -39 -36 -72 -35 -73 9 -8 527 -296 532 -296 9 0 77
131 72 140 -3 4 -110 65 -237 136 -128 70 -247 136 -263 146 l-31 18 -38 -71z"/>
<path d="M3955 4990 c-328 -36 -644 -251 -781 -532 -16 -32 -31 -58 -35 -58
-4 0 -29 9 -56 21 -311 135 -670 125 -978 -25 -361 -177 -608 -515 -672 -919
l-17 -103 -78 -18 c-232 -52 -432 -236 -504 -464 l-28 -90 -37 5 c-89 12 -257
-38 -360 -108 -160 -108 -279 -324 -279 -509 0 -189 108 -362 275 -441 155
-73 48 -69 1974 -69 1646 0 1730 1 1816 19 127 26 243 74 344 141 192 129 330
309 400 523 13 37 26 67 29 67 4 0 22 9 40 20 l34 21 -26 43 c-23 39 -26 58
-30 163 -5 134 -23 231 -64 337 -32 81 -88 185 -125 230 l-24 30 64 80 c157
200 233 438 220 690 -28 513 -434 920 -947 949 -47 3 -116 1 -155 -3z m-1135
-737 c216 -43 407 -162 552 -343 70 -86 146 -226 172 -317 l15 -52 -121 -47
c-66 -26 -129 -55 -139 -65 -18 -18 -17 -21 15 -111 19 -51 40 -96 48 -101 10
-7 46 6 118 42 58 28 112 51 121 51 9 0 49 14 90 30 40 17 98 37 129 45 225
58 484 0 658 -149 121 -103 209 -241 248 -386 27 -100 25 -283 -4 -383 -82
-285 -313 -491 -601 -538 -45 -7 -612 -10 -1756 -9 -1790 0 -1767 0 -1857 46
-102 52 -132 101 -131 219 0 116 28 182 112 266 83 82 150 112 261 113 103 1
294 -61 490 -161 95 -49 152 -72 166 -69 22 6 74 75 74 99 0 16 -163 140 -228
175 -24 12 -67 32 -95 44 -29 12 -70 33 -92 47 -22 14 -41 26 -42 26 -8 3 29
124 52 170 38 75 137 167 222 208 65 31 73 32 188 32 117 0 124 -2 269 -49
100 -33 153 -46 163 -40 13 8 46 86 60 140 10 44 -13 62 -120 95 -56 18 -126
45 -156 62 l-53 30 6 58 c36 312 261 617 560 755 190 87 393 110 606 67z"/>
<path d="M5303 4818 l-262 -152 31 -55 c53 -96 28 -100 295 54 131 76 250 146
265 155 l27 16 -40 67 c-22 37 -43 67 -47 67 -4 0 -125 -69 -269 -152z"/>
<path d="M5260 4025 l0 -85 305 0 305 0 0 85 0 85 -305 0 -305 0 0 -85z"/>
<path d="M5105 3429 c-20 -39 -35 -72 -33 -74 14 -10 531 -295 533 -293 10 11
77 140 74 142 -6 5 -470 261 -506 280 l-33 16 -35 -71z"/>
<path d="M1255 1493 c-63 -161 -454 -1247 -450 -1252 5 -9 94 -36 98 -30 7 9
467 1280 467 1289 0 5 -24 10 -54 10 -42 0 -55 -4 -61 -17z"/>
<path d="M2135 1500 c-4 -7 -109 -292 -234 -635 l-227 -624 41 -15 c55 -21 61
-20 73 12 5 15 109 299 230 632 122 333 222 612 224 620 2 12 -9 16 -49 18
-30 2 -54 -2 -58 -8z"/>
<path d="M2971 1398 c-23 -62 -126 -347 -230 -633 l-190 -520 37 -17 c20 -10
44 -18 52 -18 11 0 80 178 248 638 127 352 232 644 232 650 0 8 -20 12 -54 12
l-54 0 -41 -112z"/>
<path d="M3886 1501 c-16 -26 -456 -1255 -451 -1259 3 -4 26 -14 50 -23 l44
-17 9 27 c5 14 110 301 232 636 123 336 225 618 228 628 4 15 -3 17 -51 17
-31 0 -58 -4 -61 -9z"/>
</g>
</svg>
